HIERARCHY
ROOT Hips
{
  OFFSET 0 0 0
  CHANNELS 6 Xposition Yposition Zposition Zrotation Yrotation Xrotation
  JOINT LeftThigh
  {
    OFFSET 8.409438 0 -5.917753
    CHANNELS 3 Zrotation Yrotation Xrotation
    JOINT LeftLeg
    {
      OFFSET 0 0 -42.358652
      CHANNELS 3 Zrotation Yrotation Xrotation
      JOINT LeftFoot
      {
        OFFSET 0 0 -39.357303
        CHANNELS 3 Zrotation Yrotation Xrotation
      }
    }
  }
  JOINT RightThigh
  {
    OFFSET -8.409438 0 -5.917753
    CHANNELS 3 Zrotation Yrotation Xrotation
    JOINT RightLeg
    {
      OFFSET 0 0 -42.358652
      CHANNELS 3 Zrotation Yrotation Xrotation
      JOINT RightFoot
      {
        OFFSET 0 0 -39.357303
        CHANNELS 3 Zrotation Yrotation Xrotation
      }
    }
  }
  JOINT SpineLow
  {
    OFFSET 0 0 4.719101
    CHANNELS 3 Zrotation Yrotation Xrotation
    JOINT SpineMid
    {
      OFFSET 0 0 12.899191
      CHANNELS 3 Zrotation Yrotation Xrotation
      JOINT Chest
      {
        OFFSET 0 0 12.899191
        CHANNELS 3 Zrotation Yrotation Xrotation
        JOINT LeftShoulder
        {
          OFFSET 7.550562 1.41573 9.438202
          CHANNELS 3 Zrotation Yrotation Xrotation
          JOINT LeftArm
          {
            OFFSET 9.155056 0 4.247191
            CHANNELS 3 Zrotation Yrotation Xrotation
            JOINT LeftForearm
            {
              OFFSET 0 0 25.771955
              CHANNELS 3 Zrotation Yrotation Xrotation
              JOINT LeftHand
              {
                OFFSET 0 0 25.197169
                CHANNELS 3 Zrotation Yrotation Xrotation
              }
            }
          }
        }
        JOINT RightShoulder
        {
          OFFSET -7.550562 1.41573 9.438202
          CHANNELS 3 Zrotation Yrotation Xrotation
          JOINT RightArm
          {
            OFFSET -9.155056 0 4.247191
            CHANNELS 3 Zrotation Yrotation Xrotation
            JOINT RightForearm
            {
              OFFSET 0 0 -25.771955
              CHANNELS 3 Zrotation Yrotation Xrotation
              JOINT RightHand
              {
                OFFSET 0 0 -25.197169
                CHANNELS 3 Zrotation Yrotation Xrotation
              }
            }
          }
        }
        JOINT Neck
        {
          OFFSET 0 0 15.101124
          CHANNELS 3 Zrotation Yrotation Xrotation
          JOINT Head
          {
            OFFSET 0 0 11.325843
            CHANNELS 3 Zrotation Yrotation Xrotation
            End Site
            {
              OFFSET 0 0 14.157303
            }
          }
        }
      }
    }
  }
}
MOTION
Frames: 16
Frame Time: 0.0
0.0  93.25843  0.0  -3.760067  32.704228  -84.102995  8.169398  -18.571472  19.406118  0.200628  -0.440385  3.221797  -3.535937  0.261376  -3.296598  -22.216834  -18.322508  -39.376564  -3.565187  20.666531  27.91846  3.83308  1.819795  4.330802  -2.034777  -1.519155  -0.823189  -5.516247  -4.217849  -2.123026  -5.516247  -4.217849  -2.123026  -20.689856  25.763697  4.631476  116.966774  59.750215  -166.958823  -18.621937  -19.480453  85.782493  13.773045  -46.429364  74.200145  5.664588  -7.710624  11.938515  78.880167  76.046346  15.109112  -49.394292  1.677615  -62.65881  70.550165  -10.541354  -13.968039  -6.329193  3.344833  1.809295  -4.755505  2.490236  1.391438  
0.0  93.25843  0.0  -3.259197  32.611622  -83.915627  7.123982  -17.562694  19.384996  0.322688  -0.561771  3.642073  -3.510672  0.53931  -4.116321  -22.501248  -18.232659  -39.785454  -2.586211  20.607137  27.995019  3.829388  1.762728  4.357788  -2.022781  -1.435256  -0.742016  -5.490507  -3.98166  -1.908613  -5.490507  -3.98166  -1.908612  -20.99056  25.828053  4.421766  120.244838  58.815737  -163.812041  -17.871139  -18.978473  85.428076  14.2117  -44.455349  73.725261  5.657373  -7.836912  11.791674  76.622232  75.122437  12.639495  -49.17875  1.41438  -63.213304  70.707842  -10.553187  -14.146761  -6.380243  3.20792  1.686294  -4.792832  2.388671  1.29808  
0.0  93.25843  0.0  -2.650451  32.453579  -83.642588  5.644043  -16.675611  19.576454  0.519724  -0.091796  3.198686  -3.082729  0.832733  -4.029041  -22.554935  -17.983296  -40.147538  -1.916919  20.610244  27.91274  3.82023  1.720128  4.363404  -1.996292  -1.31309  -0.666443  -5.425027  -3.641118  -1.713396  -5.425027  -3.641118  -1.713396  -21.205669  25.799939  4.358438  123.184438  57.815592  -161.003304  -17.377824  -18.139521  84.940099  14.839932  -42.009749  73.152447  5.510582  -8.040062  11.69103  76.147143  74.105774  11.924147  -49.369097  1.204168  -63.678046  70.880226  -10.588734  -14.314851  -6.452423  3.000099  1.642905  -4.846322  2.233047  1.263765  
0.0  93.25843  0.0  -1.973031  32.181943  -83.308796  4.254779  -15.929454  19.969477  0.154564  0.718116  2.505081  -2.123432  0.655873  -3.639407  -22.312544  -17.488191  -40.534862  -1.666963  20.714693  27.668168  3.872442  1.606037  4.360811  -1.951081  -1.156694  -0.628437  -5.306433  -3.209813  -1.624324  -5.306433  -3.209813  -1.624324  -21.289632  25.701431  4.664172  126.167424  56.666231  -158.258565  -16.989315  -17.067521  84.378561  15.547901  -39.294519  72.639918  5.213143  -8.26878  11.863619  76.815284  73.059351  12.369191  -49.845512  1.050716  -64.054745  71.071551  -10.651521  -14.420844  -6.574583  2.756731  1.780792  -4.938072  2.048696  1.365201  
0.0  93.25843  0.0  -1.291258  31.915544  -82.984411  3.205515  -15.203619  20.044434  0.200556  1.06521  2.57385  -1.508963  0.74229  -3.469647  -21.891275  -16.773311  -40.907953  -1.588539  20.708613  27.462702  4.030273  1.443654  4.354736  -1.924371  -0.975996  -0.615514  -5.237543  -2.71463  -1.604388  -5.237543  -2.71463  -1.604388  -21.010258  25.433856  5.169726  128.962564  55.162222  -155.77071  -16.579839  -15.912657  83.820065  16.511074  -36.604447  72.393929  4.941617  -8.589923  12.204702  78.015815  71.887809  13.405459  -50.414599  1.127608  -64.40252  71.266891  -10.775712  -14.46992  -6.618039  2.466571  2.066822  -4.971174  1.827829  1.576822  
0.0  93.25843  0.0  -0.73498  31.408988  -82.838921  3.06275  -14.286061  19.958554  0.209443  0.663242  2.900712  -1.308918  0.905454  -3.536343  -21.191587  -15.905613  -41.159632  -1.871115  20.70803  27.08885  4.223571  1.277163  4.356105  -1.857677  -0.770585  -0.585434  -5.060414  -2.14971  -1.540456  -5.060414  -2.149711  -1.540456  -20.874517  24.824399  5.585074  131.628555  53.408557  -153.7975  -15.997692  -15.054588  83.305944  17.524297  -34.344929  72.317483  4.461984  -9.088542  12.452886  79.253757  70.430628  14.432857  -50.92136  1.493302  -64.819442  71.455055  -10.963806  -14.533944  -6.676937  2.076382  2.365849  -5.015283  1.531685  1.797141  
0.0  93.25843  0.0  -0.323988  31.129667  -82.646398  3.048062  -13.19218  19.830988  0.176394  -0.148485  2.936465  -1.332103  1.248447  -3.643164  -20.620457  -15.113006  -41.454343  -1.908064  20.458839  26.955789  4.251282  1.13159  4.334656  -1.79669  -0.597082  -0.598377  -4.896916  -1.675358  -1.590531  -4.896917  -1.675358  -1.590532  -20.672943  24.225644  6.138441  133.615569  51.634476  -152.482167  -15.302645  -14.630253  82.830024  18.54567  -32.567675  72.287024  3.848668  -9.539912  12.835434  79.862181  68.801518  15.010976  -51.265849  2.003508  -65.381616  71.629181  -11.150551  -14.621279  -6.838857  1.738118  2.669653  -5.136458  1.273934  2.021841  
0.0  93.25843  0.0  -0.138799  30.767968  -82.520985  3.003399  -12.614179  19.743944  -0.094217  -0.418044  2.558511  -0.892028  1.381646  -3.377035  -20.095846  -14.503934  -41.732772  -2.251179  20.35205  26.541592  4.600018  0.916141  4.452882  -1.727083  -0.481321  -0.620221  -4.708717  -1.359051  -1.66017  -4.708717  -1.359051  -1.660171  -20.729299  23.723381  6.538992  135.362447  49.923578  -151.63399  -14.547709  -14.460762  82.371731  19.71875  -31.186232  72.196212  3.263492  -9.815265  13.169792  79.973848  67.034645  15.264532  -51.337587  2.217878  -66.115585  71.932213  -11.284632  -14.657065  -6.998222  1.510379  2.865024  -5.25558  1.100177  2.166279  
0.0  93.25843  0.0  -0.056099  30.590394  -82.271137  2.770263  -12.362387  19.652891  -0.214161  -0.424875  2.021833  -0.346064  1.397455  -3.085876  -19.589302  -14.060432  -42.073489  -2.366503  20.102296  26.350358  4.521029  0.828582  4.464384  -1.680864  -0.428532  -0.672386  -4.582626  -1.217314  -1.807291  -4.582626  -1.217314  -1.807291  -20.497335  23.317003  6.951603  136.419241  48.197329  -151.07506  -13.844443  -14.414273  81.788153  20.965149  -30.122636  72.335971  2.67806  -9.853539  13.452796  79.877526  65.20487  15.395083  -51.217643  2.06285  -66.936342  72.478206  -11.403951  -14.639712  -7.124857  1.450651  2.960569  -5.350533  1.053672  2.237584  
0.0  93.25843  0.0  -0.099121  30.42874  -81.988503  2.578355  -12.072594  19.652549  0.036407  -0.700351  1.431392  -0.105644  1.410799  -3.005751  -19.270982  -13.775075  -42.594533  -2.97631  20.205335  25.869436  5.228103  0.526678  4.730059  -1.640248  -0.427306  -0.720483  -4.47073  -1.216113  -1.939554  -4.47073  -1.216113  -1.939554  -20.425704  22.995793  7.033304  137.288011  46.473797  -150.825773  -12.980672  -14.352692  81.287903  22.367316  -29.425046  72.443661  2.155011  -9.764501  13.553581  79.710895  63.490894  15.565449  -50.926918  1.812649  -67.722736  73.031688  -11.551119  -14.729223  -7.439007  1.536322  2.794904  -5.586086  1.118445  2.115129  
0.0  93.25843  0.0  -0.174402  30.473203  -81.605967  2.337764  -11.782227  19.512328  0.491936  -1.090064  0.784995  -0.121234  1.44926  -2.927261  -18.891064  -13.58082  -43.173311  -3.245943  20.078554  25.771644  5.317417  0.387271  4.756312  -1.608004  -0.45958  -0.77601  -4.380575  -1.307011  -2.089766  -4.380574  -1.307011  -2.089766  -20.456561  22.758872  7.03372  138.001089  44.907706  -150.735104  -12.053777  -14.309287  80.767687  23.683474  -28.970881  72.781031  1.507864  -9.555252  13.632339  79.784716  62.020311  15.97256  -50.665039  1.665983  -68.332749  73.493989  -11.710078  -14.956167  -7.560806  1.700294  2.615464  -5.677588  1.243116  1.982856  
0.0  93.25843  0.0  -0.34442  30.474939  -81.330336  2.273094  -11.592708  19.416388  0.919666  -1.381738  0.1187  0.009395  1.390782  -2.806246  -18.487386  -13.481523  -43.742145  -3.582754  20.098242  25.68713  5.591511  0.318062  4.884107  -1.551745  -0.519452  -0.827293  -4.223839  -1.472076  -2.227267  -4.223839  -1.472076  -2.227267  -20.62585  22.637672  7.110139  138.801465  43.728559  -150.709478  -10.779476  -13.970979  80.454754  25.145602  -28.936634  72.851068  0.752174  -9.268091  13.790899  78.738833  61.475313  16.147445  -50.357012  1.667417  -68.631753  73.541651  -11.939304  -16.278262  -7.7784  1.949999  2.374221  -5.840917  1.432583  1.805669  
0.0  93.25843  0.0  -0.572463  30.489779  -81.194615  2.22095  -11.54597  19.319875  1.344167  -1.565092  -0.365162  0.215282  1.275206  -2.738753  -18.038501  -13.411447  -44.177728  -3.825695  20.19522  25.718206  5.567526  0.252796  4.949878  -1.513947  -0.60808  -0.863456  -4.116752  -1.715178  -2.321523  -4.116752  -1.715178  -2.321523  -20.731981  22.630698  7.148316  139.056108  42.788999  -151.11073  -9.954606  -13.729926  80.024425  26.424691  -28.997059  73.291431  0.194284  -8.923423  13.964964  79.611047  60.37724  17.427986  -50.427423  1.63067  -68.936968  73.995696  -12.139923  -16.562062  -7.834452  2.236949  2.113336  -5.882912  1.650968  1.613805  
0.0  93.25843  0.0  -0.868643  30.351712  -81.319319  2.558802  -11.5977  19.385506  2.022591  -1.762686  -0.548577  -0.171619  1.121304  -2.929468  -17.46279  -13.314871  -44.369608  -4.042835  20.38482  25.799103  5.534351  0.214831  4.999002  -1.4899  -0.705554  -0.85851  -4.047967  -1.980329  -2.302797  -4.047967  -1.980329  -2.302797  -20.881307  22.608117  7.000168  139.01127  42.012969  -151.888291  -9.342871  -13.530836  79.642577  27.751535  -29.288603  73.796848  -0.207666  -8.578853  14.060727  80.609701  59.402298  18.944149  -50.575305  1.630988  -69.157041  74.390495  -12.340742  -16.995672  -7.799257  2.490977  1.787025  -5.855865  1.845805  1.372132  
0.0  93.25843  0.0  -1.165756  30.109669  -81.675494  3.081147  -11.739327  19.669843  2.079521  -2.061446  -0.805596  -0.440318  1.018187  -3.013272  -16.801961  -13.110544  -44.318894  -4.249781  20.621572  25.953235  5.555412  0.16171  5.008407  -1.463271  -0.783668  -0.801308  -3.974565  -2.189391  -2.142676  -3.974566  -2.189391  -2.142676  -21.005716  22.529263  6.826221  138.280773  41.422859  -153.132445  -8.991184  -13.736947  79.321241  28.992086  -29.94229  74.429051  -0.291063  -8.376485  14.22206  81.537273  58.518584  20.474504  -50.718638  1.658989  -69.380145  74.843658  -12.503728  -17.134259  -7.688422  2.594984  1.422297  -5.771408  1.928722  1.099415  
0.0  93.25843  0.0  -1.53804  30.016561  -81.929234  3.597338  -11.961307  19.902621  1.655772  -2.483267  -1.006307  -0.729226  1.017272  -3.35234  -16.211398  -12.990834  -44.393705  -4.39857  20.815192  26.213114  5.722656  0.046208  5.009833  -1.466019  -0.87368  -0.754211  -3.981167  -2.432567  -2.008558  -3.981167  -2.432567  -2.008558  -21.318686  22.441728  6.527415  137.368725  40.92635  -154.586594  -8.71699  -14.418207  79.04363  30.001931  -31.010663  75.197037  -0.611049  -8.133706  14.282099  82.438935  57.647744  21.853602  -50.95372  1.99112  -69.582469  75.230238  -12.642814  -17.549206  -8.373935  2.702884  0.690466  -6.28235  2.018156  0.55494  
